<svg width="40" height="36" viewBox="0 0 40 36" fill="none" xmlns="http://www.w3.org/2000/svg">
<path d="M30 16.2H22V9.00001C22 8.52262 21.7893 8.06479 21.4142 7.72722C21.0391 7.38965 20.5304 7.20001 20 7.20001C19.4696 7.20001 18.9609 7.38965 18.5858 7.72722C18.2107 8.06479 18 8.52262 18 9.00001V16.2H10C9.46957 16.2 8.96086 16.3897 8.58579 16.7272C8.21071 17.0648 8 17.5226 8 18C8 18.4774 8.21071 18.9352 8.58579 19.2728C8.96086 19.6104 9.46957 19.8 10 19.8H18V27C18 27.4774 18.2107 27.9352 18.5858 28.2728C18.9609 28.6104 19.4696 28.8 20 28.8C20.5304 28.8 21.0391 28.6104 21.4142 28.2728C21.7893 27.9352 22 27.4774 22 27V19.8H30C30.5304 19.8 31.0391 19.6104 31.4142 19.2728C31.7893 18.9352 32 18.4774 32 18C32 17.5226 31.7893 17.0648 31.4142 16.7272C31.0391 16.3897 30.5304 16.2 30 16.2Z" fill="white"/>
<path d="M38 6.0877e-08H2C1.73734 -6.14262e-05 1.47723 0.0464552 1.23455 0.136892C0.991871 0.227329 0.771365 0.359913 0.585634 0.527071C0.399904 0.694229 0.252587 0.892683 0.152102 1.1111C0.0516169 1.32951 -6.82514e-05 1.5636 6.76411e-08 1.8V34.2C-6.82514e-05 34.4364 0.0516169 34.6705 0.152102 34.8889C0.252587 35.1073 0.399904 35.3058 0.585634 35.4729C0.771365 35.6401 0.991871 35.7727 1.23455 35.8631C1.47723 35.9535 1.73734 36.0001 2 36H38C38.2627 36.0001 38.5228 35.9535 38.7654 35.8631C39.0081 35.7727 39.2286 35.6401 39.4144 35.4729C39.6001 35.3058 39.7474 35.1073 39.8479 34.8889C39.9484 34.6705 40.0001 34.4364 40 34.2V1.8C40.0001 1.5636 39.9484 1.32951 39.8479 1.1111C39.7474 0.892683 39.6001 0.694229 39.4144 0.527071C39.2286 0.359913 39.0081 0.227329 38.7654 0.136892C38.5228 0.0464552 38.2627 -6.14262e-05 38 6.0877e-08ZM30 19.8H22V27C22 27.4774 21.7893 27.9352 21.4142 28.2728C21.0391 28.6104 20.5304 28.8 20 28.8C19.4696 28.8 18.9609 28.6104 18.5858 28.2728C18.2107 27.9352 18 27.4774 18 27V19.8H10C9.46957 19.8 8.96086 19.6104 8.58579 19.2728C8.21071 18.9352 8 18.4774 8 18C8 17.5226 8.21071 17.0648 8.58579 16.7272C8.96086 16.3896 9.46957 16.2 10 16.2H18V9C18 8.52261 18.2107 8.06477 18.5858 7.72721C18.9609 7.38964 19.4696 7.2 20 7.2C20.5304 7.2 21.0391 7.38964 21.4142 7.72721C21.7893 8.06477 22 8.52261 22 9V16.2H30C30.5304 16.2 31.0391 16.3896 31.4142 16.7272C31.7893 17.0648 32 17.5226 32 18C32 18.4774 31.7893 18.9352 31.4142 19.2728C31.0391 19.6104 30.5304 19.8 30 19.8Z" fill="#CBD5E0"/>
</svg>
