<svg width="35" height="38" viewBox="0 0 35 38" fill="none" xmlns="http://www.w3.org/2000/svg">
<path d="M26.25 12.6667C26.25 10.1471 25.3281 7.73074 23.6872 5.94914C22.0462 4.16755 19.8206 3.16666 17.5 3.16666C15.1794 3.16666 12.9538 4.16755 11.3128 5.94914C9.67187 7.73074 8.75 10.1471 8.75 12.6667C8.75 23.75 4.375 26.9166 4.375 26.9166H30.625C30.625 26.9166 26.25 23.75 26.25 12.6667Z" stroke="white" stroke-width="2" stroke-linecap="round" stroke-linejoin="round"/>
<path d="M20.0229 33.25C19.7665 33.7299 19.3985 34.1282 18.9557 34.4051C18.5129 34.682 18.0109 34.8277 17.5 34.8277C16.989 34.8277 16.487 34.682 16.0442 34.4051C15.6014 34.1282 15.2334 33.7299 14.9771 33.25" stroke="white" stroke-width="2" stroke-linecap="round" stroke-linejoin="round"/>
</svg>
