<svg width="28" height="36" viewBox="0 0 28 36" fill="none" xmlns="http://www.w3.org/2000/svg">
<path d="M22.3905 11.9823L5.53855 12.0588L5.14932 6.36587C5.02442 5.06834 5.30996 3.76158 5.94783 2.71156C6.5857 1.66154 7.52794 0.94719 8.58278 0.713914L9.69167 0.468613C12.5186 -0.156584 15.4148 -0.156201 18.2416 0.469743L19.3457 0.714205C20.4003 0.947725 21.3423 1.66214 21.98 2.71207C22.6176 3.762 22.9031 5.06856 22.7782 6.36587L22.3905 11.9823Z" fill="#E5E5E5"/>
<path d="M5.54724 12.0583C5.60941 14.7351 6.52779 17.2762 8.10632 19.1392C9.68484 21.0021 11.7984 22.0393 13.9959 22.0293C16.1933 22.0193 18.3005 20.9629 19.8676 19.0857C21.4347 17.2084 22.3374 14.659 22.3832 11.9818L5.54724 12.0583Z" fill="#CBD5E0"/>
<path d="M21.2661 21.0897V21.0898L14.957 28.7781C14.8266 28.9371 14.6718 29.0632 14.5013 29.1493C14.3309 29.2353 14.1483 29.2796 13.9638 29.2796C13.7793 29.2796 13.5966 29.2353 13.4262 29.1493C13.2558 29.0632 13.1009 28.9371 12.9705 28.7781L6.66148 21.0898V21.0897C4.82333 22.4463 3.26675 24.3012 2.11281 26.5104C0.95887 28.7196 0.238681 31.2233 0.00825885 33.8269C-0.0131051 34.066 0.00709221 34.3078 0.0675353 34.5368C0.127978 34.7657 0.227311 34.9765 0.359065 35.1555C0.490819 35.3345 0.652039 35.4777 0.832224 35.5757C1.01241 35.6737 1.20752 35.7244 1.40485 35.7244H26.5227C26.7201 35.7244 26.9152 35.6737 27.0954 35.5757C27.2755 35.4777 27.4368 35.3345 27.5685 35.1555C27.7003 34.9765 27.7996 34.7657 27.86 34.5368C27.9205 34.3078 27.9407 34.066 27.9193 33.8269C27.6889 31.2233 26.9687 28.7195 25.8148 26.5104C24.6608 24.3012 23.1042 22.4463 21.2661 21.0897Z" fill="#E5E5E5"/>
<path d="M19.1486 19.838C17.6661 21.2431 15.8415 22.006 13.9634 22.0059C12.0852 22.0059 10.2607 21.243 8.77822 19.8378C8.04521 20.1821 7.33718 20.6006 6.66156 21.089L12.9706 28.7772C13.101 28.9362 13.2559 29.0623 13.4263 29.1484C13.5967 29.2345 13.7794 29.2787 13.9639 29.2787C14.1483 29.2787 14.331 29.2345 14.5014 29.1484C14.6719 29.0623 14.8267 28.9362 14.9571 28.7772L21.2662 21.089C20.5904 20.6005 19.8823 20.1819 19.1491 19.8376L19.1486 19.838Z" fill="white"/>
</svg>
