<svg width="26" height="37" viewBox="0 0 26 37" fill="none" xmlns="http://www.w3.org/2000/svg">
<path d="M24.1429 37C23.8169 37.0001 23.4966 36.9148 23.2143 36.7525L13 30.8845L2.78571 36.7525C2.50333 36.9146 2.18309 36.9999 1.85716 36.9998C1.53123 36.9996 1.21106 36.9141 0.928812 36.7517C0.64656 36.5894 0.412154 36.3559 0.249123 36.0747C0.086093 35.7936 0.000176737 35.4747 0 35.15V5.55C0.00161236 4.07854 0.589118 2.66781 1.63361 1.62733C2.67811 0.586853 4.09429 0.00160616 5.57143 0H20.4286C21.9057 0.00160616 23.3219 0.586853 24.3664 1.62733C25.4109 2.66781 25.9984 4.07854 26 5.55V35.15C25.9996 35.6405 25.8039 36.1109 25.4557 36.4578C25.1075 36.8046 24.6353 36.9996 24.1429 37Z" fill="white"/>
</svg>
