<svg width="33" height="35" viewBox="0 0 33 35" fill="none" xmlns="http://www.w3.org/2000/svg">
<path d="M7.5 35H1.5C1.303 35 1.10793 34.9589 0.925914 34.879C0.743903 34.799 0.578524 34.6819 0.439226 34.5341C0.299927 34.3864 0.18944 34.211 0.114076 34.0179C0.0387125 33.8249 -5.11885e-05 33.618 5.07311e-08 33.4091V20.6818C-5.11885e-05 20.4729 0.0387125 20.266 0.114076 20.0729C0.18944 19.8799 0.299927 19.7045 0.439226 19.5567C0.578524 19.409 0.743903 19.2918 0.925914 19.2119C1.10793 19.1319 1.303 19.0908 1.5 19.0909H7.5C7.697 19.0908 7.89207 19.1319 8.07409 19.2119C8.2561 19.2918 8.42148 19.409 8.56077 19.5567C8.70007 19.7045 8.81056 19.8799 8.88592 20.0729C8.96129 20.266 9.00005 20.4729 9 20.6818V33.4091C9.00005 33.618 8.96129 33.8249 8.88592 34.0179C8.81056 34.211 8.70007 34.3864 8.56077 34.5341C8.42148 34.6819 8.2561 34.799 8.07409 34.879C7.89207 34.9589 7.697 35 7.5 35Z" fill="white"/>
<path d="M19.5 35H13.5C13.303 35.0001 13.1079 34.9589 12.9259 34.879C12.7439 34.7991 12.5785 34.6819 12.4392 34.5342C12.2999 34.3864 12.1894 34.211 12.1141 34.018C12.0387 33.8249 11.9999 33.618 12 33.4091V1.59091C11.9999 1.38197 12.0387 1.17507 12.1141 0.98203C12.1894 0.788988 12.2999 0.613586 12.4392 0.465845C12.5785 0.318105 12.7439 0.200922 12.9259 0.12099C13.1079 0.0410587 13.303 -5.42909e-05 13.5 5.38057e-08H19.5C19.697 -5.42909e-05 19.8921 0.0410587 20.0741 0.12099C20.2561 0.200922 20.4215 0.318105 20.5608 0.465845C20.7001 0.613586 20.8106 0.788988 20.8859 0.98203C20.9613 1.17507 21.0001 1.38197 21 1.59091V33.4091C21.0001 33.618 20.9613 33.8249 20.8859 34.018C20.8106 34.211 20.7001 34.3864 20.5608 34.5342C20.4215 34.6819 20.2561 34.7991 20.0741 34.879C19.8921 34.9589 19.697 35.0001 19.5 35Z" fill="#E5E5E5"/>
<path d="M31.5 35H25.5C25.303 35 25.1079 34.9589 24.9259 34.879C24.7439 34.7991 24.5785 34.6819 24.4392 34.5341C24.2999 34.3864 24.1894 34.211 24.1141 34.018C24.0387 33.8249 23.9999 33.618 24 33.4091V14.3182C23.9999 14.1092 24.0387 13.9023 24.1141 13.7093C24.1894 13.5163 24.2999 13.3409 24.4392 13.1931C24.5785 13.0454 24.7439 12.9282 24.9259 12.8483C25.1079 12.7683 25.303 12.7272 25.5 12.7273H31.5C31.697 12.7272 31.8921 12.7683 32.0741 12.8483C32.2561 12.9282 32.4215 13.0454 32.5608 13.1931C32.7001 13.3409 32.8106 13.5163 32.8859 13.7093C32.9613 13.9023 33.0001 14.1092 33 14.3182V33.4091C33.0001 33.618 32.9613 33.8249 32.8859 34.018C32.8106 34.211 32.7001 34.3864 32.5608 34.5341C32.4215 34.6819 32.2561 34.7991 32.0741 34.879C31.8921 34.9589 31.697 35 31.5 35Z" fill="white"/>
</svg>
