<svg width="148" height="54" viewBox="0 0 148 54" fill="none" xmlns="http://www.w3.org/2000/svg">
<path fill-rule="evenodd" clip-rule="evenodd" d="M0 0H41.7078V8.41084H12.9727C11.4319 8.41084 10.1828 9.50233 10.1828 10.8488V36.447H0V0ZM20.0867 36.447H10.1828V42.4199C10.1828 43.7663 11.4319 44.8578 12.9727 44.8578H20.0867V54H61.7945V17.553H51.8907V10.8488C51.8907 9.50233 50.6417 8.41084 49.1008 8.41084H41.7078V17.553H20.0867V36.447ZM41.7078 17.553V36.447H20.0867V44.8578H49.1008C50.6417 44.8578 51.8907 43.7663 51.8907 42.4199V17.553H41.7078Z" fill="#48BB78"/>
<path d="M76.5046 12.3603H70.8831L69.8107 14.6275H66.9395L72.3361 4.04695H75.1036L80.5175 14.6275H77.577L76.5046 12.3603ZM75.6225 10.5011L73.7025 6.45025L71.7826 10.5011H75.6225ZM91.0987 6.4956V13.2672C91.0987 14.7586 90.6547 15.867 89.7669 16.5925C88.879 17.318 87.5818 17.6808 85.8751 17.6808C84.9756 17.6808 84.1224 17.5851 83.3151 17.3936C82.5079 17.2021 81.8392 16.925 81.3087 16.5623L82.3811 14.8694C82.7732 15.1516 83.269 15.3732 83.8686 15.5344C84.4683 15.7057 85.0678 15.7914 85.6675 15.7914C86.6016 15.7914 87.2877 15.605 87.7259 15.2321C88.1756 14.8694 88.4004 14.3151 88.4004 13.5695V13.2218C87.697 13.897 86.7169 14.2345 85.46 14.2345C84.6067 14.2345 83.8225 14.0733 83.1076 13.7509C82.4041 13.4183 81.8449 12.9548 81.4298 12.3603C81.0147 11.7657 80.8071 11.0805 80.8071 10.3046C80.8071 9.5287 81.0147 8.84348 81.4298 8.24895C81.8449 7.65443 82.4041 7.19593 83.1076 6.87348C83.8225 6.54094 84.6067 6.37468 85.46 6.37468C86.8091 6.37468 87.8354 6.76264 88.5388 7.53854V6.4956H91.0987ZM85.9962 12.2998C86.7111 12.2998 87.2934 12.1184 87.7431 11.7557C88.2044 11.3828 88.435 10.8991 88.435 10.3046C88.435 9.71009 88.2044 9.23144 87.7431 8.86867C87.2934 8.49583 86.7111 8.30941 85.9962 8.30941C85.2813 8.30941 84.6932 8.49583 84.2319 8.86867C83.7706 9.23144 83.54 9.71009 83.54 10.3046C83.54 10.8991 83.7706 11.3828 84.2319 11.7557C84.6932 12.1184 85.2813 12.2998 85.9962 12.2998ZM96.1874 7.56877C96.5103 7.17578 96.9427 6.87851 97.4846 6.67698C98.0381 6.47545 98.6724 6.37468 99.3873 6.37468V8.55126C99.0875 8.53111 98.8857 8.52103 98.7819 8.52103C98.0094 8.52103 97.404 8.71249 96.9657 9.0954C96.5276 9.46824 96.3085 10.0325 96.3085 10.7883V14.6275H93.6101V6.4956H96.1874V7.56877ZM100.992 6.4956H103.69V14.6275H100.992V6.4956ZM102.341 5.36196C101.845 5.36196 101.441 5.23601 101.13 4.98409C100.819 4.73216 100.663 4.41979 100.663 4.04695C100.663 3.67411 100.819 3.36173 101.13 3.10981C101.441 2.85789 101.845 2.73193 102.341 2.73193C102.837 2.73193 103.24 2.85285 103.552 3.0947C103.863 3.33654 104.019 3.63884 104.019 4.0016C104.019 4.3946 103.863 4.7221 103.552 4.98409C103.24 5.23601 102.837 5.36196 102.341 5.36196ZM109.325 14.7485C108.552 14.7485 107.797 14.6679 107.059 14.5066C106.321 14.3354 105.733 14.1237 105.295 13.8718L106.194 12.1789C106.609 12.4106 107.111 12.6021 107.699 12.7533C108.287 12.8943 108.864 12.9649 109.429 12.9649C110.57 12.9649 111.141 12.718 111.141 12.2242C111.141 11.9925 110.986 11.8262 110.674 11.7254C110.363 11.6247 109.884 11.539 109.239 11.4685C108.478 11.3677 107.849 11.2518 107.353 11.1208C106.857 10.9898 106.425 10.7581 106.056 10.4255C105.698 10.093 105.52 9.61939 105.52 9.00471C105.52 8.4908 105.687 8.03734 106.021 7.64435C106.367 7.24127 106.863 6.9289 107.509 6.70721C108.166 6.48552 108.939 6.37468 109.827 6.37468C110.484 6.37468 111.136 6.44017 111.781 6.57117C112.439 6.6921 112.98 6.8634 113.407 7.08509L112.508 8.76287C111.689 8.35979 110.795 8.15826 109.827 8.15826C109.25 8.15826 108.818 8.2288 108.529 8.36987C108.241 8.51094 108.097 8.69233 108.097 8.91402C108.097 9.16594 108.253 9.34228 108.564 9.44305C108.875 9.54382 109.371 9.63954 110.052 9.73023C110.813 9.84107 111.435 9.962 111.92 10.093C112.404 10.2139 112.825 10.4406 113.182 10.7732C113.54 11.1057 113.718 11.5692 113.718 12.1638C113.718 12.6676 113.546 13.116 113.2 13.509C112.854 13.902 112.346 14.2093 111.677 14.431C111.02 14.6426 110.236 14.7485 109.325 14.7485ZM124.758 6.4956V14.6275H122.198V13.6602C121.841 14.0128 121.414 14.2849 120.918 14.4764C120.422 14.6578 119.886 14.7485 119.31 14.7485C118.087 14.7485 117.119 14.4412 116.404 13.8264C115.689 13.2117 115.331 12.2998 115.331 11.0906V6.4956H118.03V10.7429C118.03 12.0529 118.658 12.7079 119.915 12.7079C120.561 12.7079 121.08 12.5265 121.472 12.1638C121.864 11.7909 122.06 11.2417 122.06 10.5162V6.4956H124.758ZM127.258 6.4956H129.956V14.6275H127.258V6.4956ZM128.607 5.36196C128.111 5.36196 127.708 5.23601 127.396 4.98409C127.085 4.73216 126.929 4.41979 126.929 4.04695C126.929 3.67411 127.085 3.36173 127.396 3.10981C127.708 2.85789 128.111 2.73193 128.607 2.73193C129.103 2.73193 129.507 2.85285 129.818 3.0947C130.129 3.33654 130.285 3.63884 130.285 4.0016C130.285 4.3946 130.129 4.7221 129.818 4.98409C129.507 5.23601 129.103 5.36196 128.607 5.36196ZM138.463 14.2345C138.197 14.4058 137.869 14.5368 137.477 14.6275C137.096 14.7081 136.693 14.7485 136.266 14.7485C135.159 14.7485 134.3 14.5016 133.689 14.0078C133.089 13.514 132.789 12.7885 132.789 11.8312V8.49079H131.354V6.67698H132.789V4.6969H135.488V6.67698H137.805V8.49079H135.488V11.801C135.488 12.1436 135.586 12.4106 135.782 12.6021C135.989 12.7835 136.278 12.8742 136.646 12.8742C137.073 12.8742 137.436 12.7734 137.736 12.5719L138.463 14.2345ZM143.108 14.7485C142.335 14.7485 141.581 14.6679 140.843 14.5066C140.105 14.3354 139.516 14.1237 139.078 13.8718L139.978 12.1789C140.392 12.4106 140.894 12.6021 141.482 12.7533C142.07 12.8943 142.646 12.9649 143.211 12.9649C144.354 12.9649 144.924 12.718 144.924 12.2242C144.924 11.9925 144.768 11.8262 144.457 11.7254C144.146 11.6247 143.667 11.539 143.021 11.4685C142.26 11.3677 141.632 11.2518 141.136 11.1208C140.64 10.9898 140.208 10.7581 139.838 10.4255C139.481 10.093 139.303 9.61939 139.303 9.00471C139.303 8.4908 139.47 8.03734 139.805 7.64435C140.151 7.24127 140.646 6.9289 141.292 6.70721C141.949 6.48552 142.722 6.37468 143.61 6.37468C144.267 6.37468 144.919 6.44017 145.564 6.57117C146.221 6.6921 146.764 6.8634 147.189 7.08509L146.291 8.76287C145.472 8.35979 144.578 8.15826 143.61 8.15826C143.033 8.15826 142.6 8.2288 142.313 8.36987C142.024 8.51094 141.88 8.69233 141.88 8.91402C141.88 9.16594 142.035 9.34228 142.346 9.44305C142.659 9.54382 143.154 9.63954 143.835 9.73023C144.595 9.84107 145.218 9.962 145.703 10.093C146.187 10.2139 146.608 10.4406 146.965 10.7732C147.323 11.1057 147.502 11.5692 147.502 12.1638C147.502 12.6676 147.329 13.116 146.983 13.509C146.637 13.902 146.129 14.2093 145.46 14.431C144.803 14.6426 144.019 14.7485 143.108 14.7485Z" fill="#48BB78"/>
<path d="M69.0776 22.4787C68.7394 22.4787 68.4326 22.4152 68.1576 22.288C67.8857 22.1582 67.6706 21.98 67.5125 21.7534C67.3576 21.5241 67.2802 21.2657 67.2802 20.9784C67.2802 20.6911 67.3576 20.4341 67.5125 20.2075C67.6706 19.9782 67.8857 19.8 68.1576 19.6729C68.4326 19.543 68.7409 19.4781 69.0824 19.4781C69.3701 19.4781 69.6293 19.5223 69.8602 19.6107C70.0941 19.6991 70.2902 19.8262 70.4483 19.992L69.955 20.3899C69.7306 20.1632 69.4523 20.05 69.1203 20.05C68.9148 20.05 68.7314 20.0901 68.5702 20.1702C68.4089 20.2476 68.2824 20.3567 68.1908 20.4976C68.1022 20.6385 68.058 20.7988 68.058 20.9784C68.058 21.1579 68.1022 21.3182 68.1908 21.4591C68.2824 21.6 68.4089 21.7106 68.5702 21.7907C68.7314 21.8681 68.9148 21.9067 69.1203 21.9067C69.4523 21.9067 69.7306 21.792 69.955 21.5627L70.4483 21.9606C70.2902 22.1292 70.0941 22.2577 69.8602 22.346C69.6263 22.4344 69.3654 22.4787 69.0776 22.4787ZM72.0411 22.4621C71.7723 22.4621 71.5304 22.4137 71.3155 22.317C71.1036 22.2176 70.9376 22.0808 70.8175 21.9067C70.6973 21.7327 70.6373 21.5351 70.6373 21.3141C70.6373 21.0931 70.6973 20.8955 70.8175 20.7214C70.9376 20.5473 71.1036 20.4119 71.3155 20.3153C71.5304 20.2158 71.7723 20.1661 72.0411 20.1661C72.3098 20.1661 72.5501 20.2158 72.762 20.3153C72.9738 20.4119 73.1398 20.5473 73.26 20.7214C73.3801 20.8955 73.4402 21.0931 73.4402 21.3141C73.4402 21.5351 73.3801 21.7327 73.26 21.9067C73.1398 22.0808 72.9738 22.2176 72.762 22.317C72.5501 22.4137 72.3098 22.4621 72.0411 22.4621ZM72.0411 21.9316C72.2308 21.9316 72.3857 21.8764 72.5059 21.7658C72.6292 21.6526 72.6909 21.5019 72.6909 21.3141C72.6909 21.1262 72.6292 20.977 72.5059 20.8665C72.3857 20.7532 72.2308 20.6965 72.0411 20.6965C71.8514 20.6965 71.6949 20.7532 71.5716 20.8665C71.4483 20.977 71.3866 21.1262 71.3866 21.3141C71.3866 21.5019 71.4483 21.6526 71.5716 21.7658C71.6949 21.8764 71.8514 21.9316 72.0411 21.9316ZM75.4856 20.1661C75.8018 20.1661 76.0562 20.2489 76.2492 20.4147C76.4451 20.5805 76.5432 20.8264 76.5432 21.1524V22.4289H75.8033V21.2519C75.8033 21.075 75.7591 20.9439 75.6705 20.8582C75.582 20.7698 75.4539 20.7256 75.2864 20.7256C75.0999 20.7256 74.9512 20.7766 74.8406 20.8789C74.73 20.9784 74.6746 21.1276 74.6746 21.3265V22.4289H73.9347V20.1992H74.6414V20.4603C74.7394 20.3663 74.8611 20.2945 75.0066 20.2448C75.1521 20.1923 75.3116 20.1661 75.4856 20.1661ZM78.7647 20.1661C79.0808 20.1661 79.3354 20.2489 79.5283 20.4147C79.7243 20.5805 79.8223 20.8264 79.8223 21.1524V22.4289H79.0825V21.2519C79.0825 21.075 79.0381 20.9439 78.9497 20.8582C78.8611 20.7698 78.7331 20.7256 78.5655 20.7256C78.3789 20.7256 78.2303 20.7766 78.1197 20.8789C78.009 20.9784 77.9537 21.1276 77.9537 21.3265V22.4289H77.2139V20.1992H77.9205V20.4603C78.0185 20.3663 78.1402 20.2945 78.2857 20.2448C78.4311 20.1923 78.5908 20.1661 78.7647 20.1661ZM83.0202 21.3224C83.0202 21.3306 83.0154 21.3887 83.006 21.4964H81.0757C81.1104 21.6345 81.1926 21.7438 81.3223 21.8238C81.4519 21.9039 81.6131 21.944 81.8061 21.944C81.9388 21.944 82.0557 21.9275 82.157 21.8943C82.2614 21.8583 82.3577 21.8031 82.4463 21.7285L82.84 22.1015C82.5996 22.3419 82.2487 22.4621 81.7871 22.4621C81.4993 22.4621 81.2447 22.4137 81.0235 22.317C80.8021 22.2176 80.6314 22.0808 80.5113 21.9067C80.3911 21.7327 80.3311 21.5351 80.3311 21.3141C80.3311 21.0958 80.3895 20.8996 80.5066 20.7256C80.6267 20.5487 80.7894 20.4119 80.995 20.3153C81.2037 20.2158 81.4361 20.1661 81.6922 20.1661C81.9419 20.1661 82.168 20.213 82.3704 20.307C82.5727 20.4009 82.7309 20.5363 82.8447 20.7131C82.9616 20.8872 83.0202 21.0903 83.0202 21.3224ZM81.697 20.6551C81.5293 20.6551 81.3887 20.6965 81.2749 20.7794C81.161 20.8623 81.0914 20.9756 81.0662 21.1193H82.323C82.2976 20.9784 82.2282 20.8665 82.1143 20.7836C82.0005 20.6979 81.8613 20.6551 81.697 20.6551ZM84.7458 22.4621C84.474 22.4621 84.2289 22.4137 84.0107 22.317C83.7958 22.2176 83.6266 22.0808 83.5032 21.9067C83.3831 21.7327 83.323 21.5351 83.323 21.3141C83.323 21.0931 83.3831 20.8955 83.5032 20.7214C83.6266 20.5473 83.7958 20.4119 84.0107 20.3153C84.2289 20.2158 84.474 20.1661 84.7458 20.1661C85.0146 20.1661 85.2486 20.2158 85.4477 20.3153C85.6501 20.4119 85.7972 20.5515 85.8888 20.7338L85.315 21.0032C85.1822 20.7988 84.9909 20.6965 84.7411 20.6965C84.5482 20.6965 84.3886 20.7518 84.2621 20.8623C84.1356 20.9729 84.0724 21.1234 84.0724 21.3141C84.0724 21.5047 84.1356 21.6553 84.2621 21.7658C84.3886 21.8764 84.5482 21.9316 84.7411 21.9316C84.994 21.9316 85.1854 21.8293 85.315 21.6249L85.8888 21.8984C85.7972 22.0753 85.6501 22.2134 85.4477 22.3129C85.2486 22.4124 85.0146 22.4621 84.7458 22.4621ZM87.9976 22.3212C87.9248 22.3681 87.8347 22.4041 87.7273 22.4289C87.623 22.451 87.5122 22.4621 87.3953 22.4621C87.0918 22.4621 86.8562 22.3944 86.6887 22.259C86.5242 22.1236 86.442 21.9246 86.442 21.6622V20.7463H86.0484V20.2489H86.442V19.706H87.1819V20.2489H87.8174V20.7463H87.1819V21.6539C87.1819 21.7479 87.2087 21.821 87.2625 21.8736C87.3194 21.9233 87.3984 21.9482 87.4997 21.9482C87.6166 21.9482 87.7161 21.9205 87.7984 21.8653L87.9976 22.3212ZM88.4129 20.1992H89.1528V22.4289H88.4129V20.1992ZM88.7828 19.8884C88.6468 19.8884 88.5362 19.8539 88.4508 19.7848C88.3655 19.7156 88.3228 19.6301 88.3228 19.5278C88.3228 19.4255 88.3655 19.34 88.4508 19.2708C88.5362 19.2017 88.6468 19.1672 88.7828 19.1672C88.9188 19.1672 89.0295 19.2004 89.1148 19.2667C89.2002 19.333 89.2429 19.4159 89.2429 19.5154C89.2429 19.6231 89.2002 19.713 89.1148 19.7848C89.0295 19.8539 88.9188 19.8884 88.7828 19.8884ZM91.3903 20.1661C91.7064 20.1661 91.961 20.2489 92.1539 20.4147C92.3499 20.5805 92.448 20.8264 92.448 21.1524V22.4289H91.7081V21.2519C91.7081 21.075 91.6637 20.9439 91.5753 20.8582C91.4867 20.7698 91.3587 20.7256 91.1912 20.7256C91.0045 20.7256 90.856 20.7766 90.7453 20.8789C90.6346 20.9784 90.5793 21.1276 90.5793 21.3265V22.4289H89.8395V20.1992H90.5461V20.4603C90.6441 20.3663 90.7658 20.2945 90.9113 20.2448C91.0567 20.1923 91.2164 20.1661 91.3903 20.1661ZM95.7786 20.1992V22.0559C95.7786 22.4649 95.6568 22.7688 95.4134 22.9677C95.1699 23.1666 94.8142 23.2661 94.3463 23.2661C94.0997 23.2661 93.8656 23.2399 93.6444 23.1874C93.423 23.1348 93.2396 23.0589 93.0942 22.9594L93.3883 22.4952C93.4957 22.5726 93.6317 22.6334 93.7961 22.6776C93.9605 22.7245 94.1249 22.7481 94.2894 22.7481C94.5455 22.7481 94.7335 22.697 94.8538 22.5947C94.9771 22.4952 95.0387 22.3432 95.0387 22.1388V22.0435C94.8458 22.2287 94.577 22.3212 94.2325 22.3212C93.9984 22.3212 93.7835 22.2769 93.5875 22.1886C93.3946 22.0974 93.2412 21.9702 93.1274 21.8073C93.0136 21.6443 92.9567 21.4563 92.9567 21.2436C92.9567 21.0309 93.0136 20.8429 93.1274 20.68C93.2412 20.517 93.3946 20.3912 93.5875 20.3028C93.7835 20.2116 93.9984 20.1661 94.2325 20.1661C94.6024 20.1661 94.8838 20.2725 95.0767 20.4852V20.1992H95.7786ZM94.3795 21.7907C94.5755 21.7907 94.7352 21.741 94.8585 21.6415C94.9849 21.5392 95.0482 21.4066 95.0482 21.2436C95.0482 21.0806 94.9849 20.9494 94.8585 20.8499C94.7352 20.7476 94.5755 20.6965 94.3795 20.6965C94.1834 20.6965 94.0221 20.7476 93.8957 20.8499C93.7692 20.9494 93.706 21.0806 93.706 21.2436C93.706 21.4066 93.7692 21.5392 93.8957 21.6415C94.0221 21.741 94.1834 21.7907 94.3795 21.7907ZM100.049 21.8073H98.5075L98.2134 22.4289H97.4261L98.9058 19.5278H99.6647L101.149 22.4289H100.343L100.049 21.8073ZM99.807 21.2975L99.2805 20.1868L98.7541 21.2975H99.807ZM104.05 20.1992V22.0559C104.05 22.4649 103.929 22.7688 103.685 22.9677C103.442 23.1666 103.086 23.2661 102.618 23.2661C102.371 23.2661 102.138 23.2399 101.916 23.1874C101.695 23.1348 101.512 23.0589 101.366 22.9594L101.66 22.4952C101.768 22.5726 101.904 22.6334 102.068 22.6776C102.232 22.7245 102.397 22.7481 102.561 22.7481C102.817 22.7481 103.005 22.697 103.126 22.5947C103.249 22.4952 103.311 22.3432 103.311 22.1388V22.0435C103.118 22.2287 102.849 22.3212 102.504 22.3212C102.27 22.3212 102.055 22.2769 101.859 22.1886C101.667 22.0974 101.513 21.9702 101.399 21.8073C101.285 21.6443 101.229 21.4563 101.229 21.2436C101.229 21.0309 101.285 20.8429 101.399 20.68C101.513 20.517 101.667 20.3912 101.859 20.3028C102.055 20.2116 102.27 20.1661 102.504 20.1661C102.874 20.1661 103.156 20.2725 103.348 20.4852V20.1992H104.05ZM102.651 21.7907C102.847 21.7907 103.007 21.741 103.13 21.6415C103.257 21.5392 103.32 21.4066 103.32 21.2436C103.32 21.0806 103.257 20.9494 103.13 20.8499C103.007 20.7476 102.847 20.6965 102.651 20.6965C102.455 20.6965 102.294 20.7476 102.168 20.8499C102.041 20.9494 101.978 21.0806 101.978 21.2436C101.978 21.4066 102.041 21.5392 102.168 21.6415C102.294 21.741 102.455 21.7907 102.651 21.7907ZM105.446 20.4935C105.534 20.3857 105.653 20.3042 105.801 20.2489C105.953 20.1937 106.127 20.1661 106.323 20.1661V20.7629C106.241 20.7574 106.186 20.7546 106.157 20.7546C105.945 20.7546 105.779 20.8071 105.659 20.9121C105.539 21.0143 105.479 21.169 105.479 21.3762V22.4289H104.739V20.1992H105.446V20.4935ZM106.763 20.1992H107.503V22.4289H106.763V20.1992ZM107.133 19.8884C106.997 19.8884 106.886 19.8539 106.801 19.7848C106.716 19.7156 106.673 19.6301 106.673 19.5278C106.673 19.4255 106.716 19.34 106.801 19.2708C106.886 19.2017 106.997 19.1672 107.133 19.1672C107.269 19.1672 107.38 19.2004 107.465 19.2667C107.55 19.333 107.593 19.4159 107.593 19.5154C107.593 19.6231 107.55 19.713 107.465 19.7848C107.38 19.8539 107.269 19.8884 107.133 19.8884ZM108.19 19.3537H108.929V22.4289H108.19V19.3537ZM112.102 22.4787C111.84 22.4787 111.585 22.4483 111.339 22.3875C111.095 22.324 110.899 22.2424 110.751 22.143L111.011 21.6373C111.154 21.7285 111.323 21.8018 111.519 21.857C111.715 21.9122 111.911 21.9399 112.107 21.9399C112.325 21.9399 112.486 21.9122 112.591 21.857C112.695 21.799 112.747 21.723 112.747 21.6291C112.747 21.5599 112.716 21.5034 112.652 21.4591C112.592 21.4122 112.513 21.3749 112.415 21.3472C112.32 21.3196 112.191 21.2892 112.026 21.256C111.773 21.2035 111.566 21.1511 111.405 21.0986C111.244 21.046 111.105 20.9618 110.988 20.8457C110.874 20.7297 110.817 20.575 110.817 20.3816C110.817 20.213 110.869 20.0611 110.973 19.9257C111.078 19.7876 111.234 19.6783 111.443 19.5983C111.655 19.5182 111.913 19.4781 112.216 19.4781C112.428 19.4781 112.635 19.5001 112.837 19.5444C113.04 19.5886 113.217 19.6521 113.369 19.735L113.131 20.2448C112.825 20.0928 112.518 20.0169 112.211 20.0169C111.996 20.0169 111.837 20.0472 111.732 20.108C111.631 20.1689 111.581 20.2489 111.581 20.3484C111.581 20.4479 111.639 20.5225 111.756 20.5722C111.876 20.6191 112.058 20.6662 112.301 20.7131C112.554 20.7657 112.761 20.8181 112.923 20.8706C113.084 20.9232 113.222 21.006 113.335 21.1193C113.452 21.2325 113.511 21.3859 113.511 21.5793C113.511 21.7451 113.457 21.8971 113.35 22.0352C113.245 22.1706 113.087 22.2784 112.875 22.3585C112.663 22.4386 112.406 22.4787 112.102 22.4787ZM115.629 22.3212C115.557 22.3681 115.467 22.4041 115.359 22.4289C115.255 22.451 115.144 22.4621 115.027 22.4621C114.723 22.4621 114.488 22.3944 114.32 22.259C114.156 22.1236 114.074 21.9246 114.074 21.6622V20.7463H113.68V20.2489H114.074V19.706H114.814V20.2489H115.449V20.7463H114.814V21.6539C114.814 21.7479 114.84 21.821 114.894 21.8736C114.951 21.9233 115.03 21.9482 115.131 21.9482C115.248 21.9482 115.348 21.9205 115.43 21.8653L115.629 22.3212ZM117.074 20.1661C117.469 20.1661 117.773 20.2489 117.984 20.4147C118.196 20.5777 118.302 20.825 118.302 21.1566V22.4289H117.61V22.1513C117.471 22.3585 117.211 22.4621 116.832 22.4621C116.636 22.4621 116.465 22.4331 116.32 22.3751C116.177 22.317 116.068 22.2369 115.993 22.1347C115.917 22.0324 115.879 21.9164 115.879 21.7865C115.879 21.5793 115.967 21.4163 116.144 21.2975C116.325 21.1786 116.601 21.1193 116.974 21.1193H117.562C117.562 20.9784 117.513 20.8706 117.415 20.796C117.317 20.7186 117.17 20.68 116.974 20.68C116.838 20.68 116.704 20.6993 116.571 20.738C116.441 20.7739 116.331 20.8237 116.239 20.8872L115.974 20.4354C116.113 20.3497 116.279 20.2834 116.472 20.2365C116.668 20.1896 116.868 20.1661 117.074 20.1661ZM117.017 22.0269C117.143 22.0269 117.256 22.0021 117.354 21.9523C117.452 21.8998 117.521 21.8238 117.562 21.7244V21.4964H117.055C116.751 21.4964 116.6 21.5835 116.6 21.7575C116.6 21.8404 116.636 21.9067 116.709 21.9565C116.785 22.0034 116.887 22.0269 117.017 22.0269ZM120.617 22.3212C120.545 22.3681 120.455 22.4041 120.347 22.4289C120.243 22.451 120.132 22.4621 120.015 22.4621C119.712 22.4621 119.476 22.3944 119.308 22.259C119.144 22.1236 119.062 21.9246 119.062 21.6622V20.7463H118.668V20.2489H119.062V19.706H119.802V20.2489H120.437V20.7463H119.802V21.6539C119.802 21.7479 119.829 21.821 119.882 21.8736C119.939 21.9233 120.018 21.9482 120.12 21.9482C120.237 21.9482 120.336 21.9205 120.418 21.8653L120.617 22.3212ZM123.453 21.3224C123.453 21.3306 123.449 21.3887 123.439 21.4964H121.509C121.544 21.6345 121.626 21.7438 121.756 21.8238C121.885 21.9039 122.046 21.944 122.239 21.944C122.372 21.944 122.489 21.9275 122.59 21.8943C122.695 21.8583 122.791 21.8031 122.88 21.7285L123.273 22.1015C123.033 22.3419 122.682 22.4621 122.22 22.4621C121.933 22.4621 121.678 22.4137 121.457 22.317C121.235 22.2176 121.065 22.0808 120.945 21.9067C120.824 21.7327 120.764 21.5351 120.764 21.3141C120.764 21.0958 120.823 20.8996 120.94 20.7256C121.06 20.5487 121.223 20.4119 121.428 20.3153C121.637 20.2158 121.869 20.1661 122.126 20.1661C122.375 20.1661 122.601 20.213 122.804 20.307C123.006 20.4009 123.164 20.5363 123.278 20.7131C123.395 20.8872 123.453 21.0903 123.453 21.3224ZM122.13 20.6551C121.963 20.6551 121.822 20.6965 121.708 20.7794C121.594 20.8623 121.525 20.9756 121.499 21.1193H122.756C122.731 20.9784 122.661 20.8665 122.548 20.7836C122.434 20.6979 122.295 20.6551 122.13 20.6551ZM128.386 19.5278V22.4289H127.618V21.2395H126.11V22.4289H125.341V19.5278H126.11V20.6717H127.618V19.5278H128.386ZM130.334 22.4621C130.065 22.4621 129.823 22.4137 129.608 22.317C129.396 22.2176 129.23 22.0808 129.11 21.9067C128.99 21.7327 128.93 21.5351 128.93 21.3141C128.93 21.0931 128.99 20.8955 129.11 20.7214C129.23 20.5473 129.396 20.4119 129.608 20.3153C129.823 20.2158 130.065 20.1661 130.334 20.1661C130.602 20.1661 130.843 20.2158 131.054 20.3153C131.266 20.4119 131.432 20.5473 131.552 20.7214C131.673 20.8955 131.733 21.0931 131.733 21.3141C131.733 21.5351 131.673 21.7327 131.552 21.9067C131.432 22.0808 131.266 22.2176 131.054 22.317C130.843 22.4137 130.602 22.4621 130.334 22.4621ZM130.334 21.9316C130.523 21.9316 130.678 21.8764 130.798 21.7658C130.922 21.6526 130.983 21.5019 130.983 21.3141C130.983 21.1262 130.922 20.977 130.798 20.8665C130.678 20.7532 130.523 20.6965 130.334 20.6965C130.144 20.6965 129.987 20.7532 129.864 20.8665C129.741 20.977 129.679 21.1262 129.679 21.3141C129.679 21.5019 129.741 21.6526 129.864 21.7658C129.987 21.8764 130.144 21.9316 130.334 21.9316ZM132.227 19.3537H132.967V22.4289H132.227V19.3537ZM136.253 19.3537V22.4289H135.546V22.172C135.363 22.3654 135.097 22.4621 134.749 22.4621C134.509 22.4621 134.291 22.4152 134.095 22.3212C133.902 22.2272 133.75 22.0932 133.64 21.9192C133.529 21.7451 133.474 21.5434 133.474 21.3141C133.474 21.0848 133.529 20.883 133.64 20.709C133.75 20.5349 133.902 20.4009 134.095 20.307C134.291 20.213 134.509 20.1661 134.749 20.1661C135.075 20.1661 135.329 20.2559 135.513 20.4354V19.3537H136.253ZM134.877 21.9316C135.064 21.9316 135.219 21.8764 135.342 21.7658C135.465 21.6526 135.527 21.5019 135.527 21.3141C135.527 21.1262 135.465 20.977 135.342 20.8665C135.219 20.7532 135.064 20.6965 134.877 20.6965C134.688 20.6965 134.531 20.7532 134.408 20.8665C134.285 20.977 134.223 21.1262 134.223 21.3141C134.223 21.5019 134.285 21.6526 134.408 21.7658C134.531 21.8764 134.688 21.9316 134.877 21.9316ZM139.437 21.3224C139.437 21.3306 139.432 21.3887 139.423 21.4964H137.492C137.527 21.6345 137.609 21.7438 137.739 21.8238C137.869 21.9039 138.03 21.944 138.223 21.944C138.356 21.944 138.473 21.9275 138.574 21.8943C138.678 21.8583 138.774 21.8031 138.863 21.7285L139.257 22.1015C139.016 22.3419 138.665 22.4621 138.204 22.4621C137.916 22.4621 137.662 22.4137 137.44 22.317C137.219 22.2176 137.048 22.0808 136.928 21.9067C136.808 21.7327 136.748 21.5351 136.748 21.3141C136.748 21.0958 136.806 20.8996 136.923 20.7256C137.043 20.5487 137.206 20.4119 137.412 20.3153C137.62 20.2158 137.853 20.1661 138.109 20.1661C138.359 20.1661 138.585 20.213 138.787 20.307C138.99 20.4009 139.148 20.5363 139.261 20.7131C139.378 20.8872 139.437 21.0903 139.437 21.3224ZM138.114 20.6551C137.946 20.6551 137.805 20.6965 137.692 20.7794C137.578 20.8623 137.508 20.9756 137.483 21.1193H138.74C138.715 20.9784 138.645 20.8665 138.531 20.7836C138.417 20.6979 138.278 20.6551 138.114 20.6551ZM140.636 20.4935C140.724 20.3857 140.843 20.3042 140.992 20.2489C141.144 20.1937 141.317 20.1661 141.514 20.1661V20.7629C141.431 20.7574 141.376 20.7546 141.348 20.7546C141.136 20.7546 140.97 20.8071 140.85 20.9121C140.73 21.0143 140.67 21.169 140.67 21.3762V22.4289H139.929V20.1992H140.636V20.4935ZM142.821 22.4621C142.609 22.4621 142.402 22.44 142.2 22.3958C141.998 22.3488 141.836 22.2908 141.716 22.2217L141.963 21.7575C142.077 21.821 142.214 21.8736 142.376 21.915C142.536 21.9537 142.695 21.973 142.85 21.973C143.162 21.973 143.319 21.9054 143.319 21.77C143.319 21.7065 143.277 21.6609 143.192 21.6332C143.105 21.6055 142.974 21.5821 142.797 21.5627C142.589 21.5351 142.416 21.5034 142.281 21.4674C142.144 21.4315 142.026 21.3679 141.925 21.2768C141.826 21.1856 141.777 21.0558 141.777 20.8872C141.777 20.7463 141.823 20.6219 141.915 20.5142C142.01 20.4036 142.146 20.3181 142.323 20.2572C142.504 20.1964 142.715 20.1661 142.959 20.1661C143.139 20.1661 143.317 20.184 143.494 20.2199C143.674 20.2531 143.824 20.3 143.941 20.3608L143.694 20.8209C143.469 20.7103 143.224 20.6551 142.959 20.6551C142.801 20.6551 142.683 20.6745 142.603 20.7131C142.524 20.7518 142.485 20.8015 142.485 20.8623C142.485 20.9314 142.528 20.9797 142.613 21.0074C142.698 21.0351 142.833 21.0613 143.02 21.0861C143.229 21.1165 143.4 21.1496 143.532 21.1856C143.666 21.2187 143.78 21.2809 143.879 21.3721C143.977 21.4633 144.026 21.5904 144.026 21.7534C144.026 21.8915 143.978 22.0145 143.884 22.1222C143.789 22.23 143.649 22.3142 143.467 22.3751C143.287 22.4331 143.07 22.4621 142.821 22.4621Z" fill="#48BB78"/>
</svg>
