<svg width="42" height="41" viewBox="0 0 42 41" fill="none" xmlns="http://www.w3.org/2000/svg">
<path d="M36.75 5.70365H11.2383L10.9922 4.71172C10.7188 3.44424 10.1035 2.41098 9.14648 1.61192C8.18945 0.81286 7.05469 0.41333 5.74219 0.41333H1.72266C1.23047 0.41333 0.820312 0.578653 0.492188 0.909298C0.164062 1.23994 0 1.6808 0 2.23188C0 2.72785 0.164062 3.14115 0.492188 3.4718C0.820312 3.80244 1.23047 3.96777 1.72266 3.96777H5.74219C6.78125 3.96777 7.38281 4.43618 7.54688 5.37301L11.5664 26.5343C11.8945 27.6916 12.5371 28.6284 13.4941 29.3448C14.4512 30.0612 15.5039 30.4194 16.6523 30.4194H33.2227C33.7695 30.4194 34.207 30.2541 34.5352 29.9234C34.8633 29.5928 35.0273 29.1795 35.0273 28.6835C35.0273 27.4711 34.4258 26.8649 33.2227 26.8649H16.6523C15.8867 26.8649 15.3398 26.5343 15.0117 25.873L14.8477 25.1291H32.4023C33.4961 25.1291 34.4941 24.7984 35.3965 24.1371C36.2988 23.4758 36.9141 22.6217 37.2422 21.5746L42 11.4073V10.994C42 9.50607 41.4941 8.25238 40.4824 7.23289C39.4707 6.2134 38.2266 5.70365 36.75 5.70365ZM15.75 21.5746H14.1914L11.8945 9.25809H15.75V21.5746ZM22.7227 21.5746H19.2773V9.25809H22.7227V21.5746ZM29.7773 21.5746H26.25V9.25809H29.7773V21.5746ZM34.125 20.1694V20.3347C33.9609 20.8858 33.6602 21.244 33.2227 21.4093V9.25809H36.75C37.7344 9.25809 38.3086 9.7265 38.4727 10.6633L34.125 20.1694ZM21 35.7097C21 36.7016 20.6582 37.542 19.9746 38.2309C19.291 38.9197 18.457 39.2641 17.4727 39.2641C16.543 39.2641 15.7363 38.9197 15.0527 38.2309C14.3691 37.542 14.0273 36.7016 14.0273 35.7097C14.0273 34.7178 14.3691 33.8774 15.0527 33.1885C15.7363 32.4997 16.543 32.1553 17.4727 32.1553C18.457 32.1553 19.291 32.4997 19.9746 33.1885C20.6582 33.8774 21 34.7178 21 35.7097ZM35.0273 35.7097C35.0273 36.7016 34.6855 37.542 34.002 38.2309C33.3184 38.9197 32.4844 39.2641 31.5 39.2641C30.5156 39.2641 29.6816 38.9197 28.998 38.2309C28.3145 37.542 27.9727 36.7016 27.9727 35.7097C27.9727 34.7178 28.3145 33.8774 28.998 33.1885C29.6816 32.4997 30.5156 32.1553 31.5 32.1553C32.4844 32.1553 33.3184 32.4997 34.002 33.1885C34.6855 33.8774 35.0273 34.7178 35.0273 35.7097Z" fill="black"/>
</svg>
