<svg width="65" height="65" viewBox="0 0 65 65" fill="none" xmlns="http://www.w3.org/2000/svg">
<path d="M20.8406 60.6501L27.9774 53.3376C25.4837 52.796 23.1083 51.8085 20.9656 50.4227L20.8406 60.6501Z" fill="black"/>
<path d="M44.1594 4.35095L37.0246 11.6624C39.5184 12.2044 41.8938 13.1922 44.0365 14.5783L44.1594 4.35095Z" fill="black"/>
<path d="M11.6634 37.0236L4.34991 44.1584L14.5773 44.0344C13.1916 41.8921 12.2044 39.517 11.6634 37.0236Z" fill="black"/>
<path d="M53.3366 27.9774L60.6501 20.8406L50.4227 20.9656C51.8084 23.1083 52.7956 25.4837 53.3366 27.9774Z" fill="black"/>
<path d="M14.5783 20.9645L4.35095 20.8396L11.6645 27.9764C12.2044 25.4823 13.1916 23.1067 14.5783 20.9645Z" fill="black"/>
<path d="M50.4217 44.0355L60.649 44.1594L53.3355 37.0236C52.7954 39.5176 51.8082 41.8932 50.4217 44.0355Z" fill="black"/>
<path d="M27.9774 11.6624L20.8406 4.34991L20.9656 14.5773C23.1083 13.1915 25.4837 12.204 27.9774 11.6624Z" fill="black"/>
<path d="M37.0226 53.3376L44.1594 60.6491L44.0345 50.4227C41.8915 51.8081 39.5161 52.7955 37.0226 53.3376Z" fill="black"/>
<path d="M14.9825 44.6489L10.9535 54.0445L20.3501 50.0175C18.2557 48.5616 16.438 46.7436 14.9825 44.6489Z" fill="black"/>
<path d="M50.0175 20.3521L54.0444 10.9555L44.6499 14.9825C46.7443 16.4388 48.562 18.2571 50.0175 20.3521Z" fill="black"/>
<path d="M11.1719 32.5C11.1719 31.202 11.307 29.9366 11.5294 28.7006L2.03125 32.499L11.5294 36.2974C11.2972 35.0448 11.1776 33.7739 11.1719 32.5Z" fill="black"/>
<path d="M62.9688 32.5L53.4706 28.7006C53.6931 29.9366 53.8281 31.202 53.8281 32.5C53.8281 33.799 53.6931 35.0645 53.4706 36.2995L62.9688 32.5Z" fill="black"/>
<path d="M20.3521 14.9815L10.9556 10.9545L14.9825 20.3511C16.4393 18.2565 18.2576 16.4382 20.3521 14.9815Z" fill="black"/>
<path d="M44.6479 50.0175L54.0445 54.0445L50.0175 44.6489C48.561 46.7434 46.7427 48.5614 44.6479 50.0175Z" fill="black"/>
<path d="M36.2984 11.5294L32.5 2.03125L28.7015 11.5294C29.9355 11.307 31.201 11.1719 32.5 11.1719C33.799 11.1719 35.0644 11.307 36.2984 11.5294Z" fill="black"/>
<path d="M28.7015 53.4706L32.5 62.9688L36.2984 53.4706C35.0644 53.6931 33.799 53.8281 32.5 53.8281C31.201 53.8281 29.9355 53.6931 28.7015 53.4706Z" fill="black"/>
<path d="M32.5 51.7969C43.1574 51.7969 51.7969 43.1574 51.7969 32.5C51.7969 21.8426 43.1574 13.2031 32.5 13.2031C21.8426 13.2031 13.2031 21.8426 13.2031 32.5C13.2031 43.1574 21.8426 51.7969 32.5 51.7969Z" fill="black"/>
</svg>
