<svg width="64" height="64" viewBox="0 0 64 64" fill="none" xmlns="http://www.w3.org/2000/svg">
<path d="M40 8H54V12H40V8Z" fill="black"/>
<path d="M40 20H60V24H40V20Z" fill="black"/>
<path d="M40 32H54V36H40V32Z" fill="black"/>
<path d="M24 46C24 47.5913 23.3679 49.1174 22.2426 50.2426C21.1174 51.3679 19.5913 52 18 52C16.4087 52 14.8826 51.3679 13.7574 50.2426C12.6321 49.1174 12 47.5913 12 46H24Z" fill="black"/>
<path d="M60 44H31.84C31.4148 41.0659 30.0704 38.3421 28 36.22V14C28 11.3478 26.9464 8.8043 25.071 6.92893C23.1957 5.05357 20.6521 4 18 4C15.3478 4 12.8043 5.05357 10.9289 6.92893C9.05354 8.8043 7.99997 11.3478 7.99997 14V36.22C6.45291 37.7987 5.30193 39.7215 4.64134 41.8308C3.98076 43.9401 3.82938 46.176 4.1996 48.3551C4.56982 50.5342 5.45111 52.5946 6.77125 54.3674C8.09139 56.1402 9.81281 57.575 11.7944 58.5542C13.7761 59.5334 15.9615 60.0291 18.1717 60.0007C20.3818 59.9723 22.5538 59.4206 24.5097 58.3909C26.4655 57.3611 28.1495 55.8826 29.4236 54.0764C30.6978 52.2703 31.5259 50.1879 31.84 48H60V44ZM18 56C15.9755 56.0029 13.9979 55.3904 12.3294 54.2437C10.661 53.097 9.38045 51.4702 8.65767 49.5791C7.9349 47.688 7.80399 45.6219 8.28231 43.6547C8.76063 41.6875 9.82559 39.9121 11.336 38.564L12 37.966V14C12 12.4087 12.6321 10.8826 13.7573 9.75736C14.8825 8.63214 16.4087 8 18 8C19.5913 8 21.1174 8.63214 22.2426 9.75736C23.3678 10.8826 24 12.4087 24 14V37.966L24.664 38.564C26.1744 39.9121 27.2393 41.6875 27.7176 43.6547C28.196 45.6219 28.065 47.688 27.3423 49.5791C26.6195 51.4702 25.339 53.097 23.6705 54.2437C22.0021 55.3904 20.0245 56.0029 18 56Z" fill="black"/>
</svg>
