<svg width="37" height="51" viewBox="0 0 37 51" fill="none" xmlns="http://www.w3.org/2000/svg">
<path d="M33.6856 22.4233L20.2205 0.981403C20.0251 0.707203 19.767 0.48367 19.4678 0.329434C19.1685 0.175198 18.8367 0.0947266 18.5 0.0947266C18.1633 0.0947266 17.8315 0.175198 17.5322 0.329434C17.233 0.48367 16.9749 0.707203 16.7795 0.981403L3.25344 22.5248C1.3743 25.556 0.327556 29.029 0.21875 32.5937C0.21875 37.4422 2.1448 42.0921 5.5732 45.5205C9.0016 48.9489 13.6515 50.875 18.5 50.875C23.3485 50.875 27.9984 48.9489 31.4268 45.5205C34.8552 42.0921 36.7812 37.4422 36.7812 32.5937C36.6645 28.9899 35.5965 25.4811 33.6856 22.4233ZM18.5 46.8125C14.7304 46.8077 11.1167 45.3081 8.45117 42.6426C5.78568 39.9771 4.28609 36.3633 4.28125 32.5937C4.38922 29.7532 5.24245 26.9911 6.75531 24.5845L8.65453 21.558L29.1173 42.0208C27.7883 43.5265 26.1544 44.7326 24.324 45.559C22.4936 46.3854 20.5084 46.8134 18.5 46.8145V46.8125Z" fill="black"/>
</svg>
