<svg width="64" height="64" viewBox="0 0 64 64" fill="none" xmlns="http://www.w3.org/2000/svg">
<path d="M57.086 18.386C59.799 18.386 62 16.16 62 13.422C62 10.193 60.209 6.266 57.088 2C54.016 6.201 52.172 10.193 52.172 13.422C52.172 16.16 54.371 18.386 57.086 18.386ZM57.088 5.556C59.001 8.615 60 11.303 60 13.422C60 15.057 58.692 16.386 57.086 16.386C55.48 16.386 54.172 15.057 54.172 13.422C54.172 11.307 55.173 8.619 57.088 5.556Z" fill="black"/>
<path d="M44.419 19.259C43.601 17.031 42.225 14.611 40.363 12.067C39.091 13.807 38.044 15.507 37.237 17.137C35.8152 16.8958 34.3785 16.7524 32.937 16.708V12.937C32.937 12.6882 32.8382 12.4496 32.6623 12.2737C32.4864 12.0978 32.2478 11.999 31.999 11.999C31.7502 11.999 31.5116 12.0978 31.3357 12.2737C31.1598 12.4496 31.061 12.6882 31.061 12.937V16.708C29.654 16.7573 28.2518 16.9009 26.864 17.138C27.3932 16.6741 27.8175 16.1027 28.1086 15.462C28.3996 14.8212 28.5508 14.1258 28.552 13.422C28.552 10.193 26.761 6.266 23.64 2C20.568 6.201 18.724 10.193 18.724 13.422C18.7226 14.5151 19.0835 15.5779 19.7502 16.4442C20.417 17.3105 21.3519 17.9315 22.409 18.21C18.5011 19.4607 14.8821 21.4788 11.764 24.146C11.792 23.93 11.829 23.716 11.829 23.493C11.829 20.264 10.036 16.333 6.915 12.067C3.844 16.268 2 20.263 2 23.492C2 26.232 4.199 28.455 6.914 28.455C7.183 28.455 7.44 28.416 7.698 28.375C4.976 31.814 2.985 35.834 2 40.229C2.9044 39.2986 3.98677 38.5598 5.18266 38.0564C6.37854 37.553 7.6635 37.2954 8.961 37.299C10.4443 37.2939 11.9088 37.6309 13.2408 38.2837C14.5727 38.9365 15.7363 39.8876 16.641 41.063C17.5459 39.8878 18.7095 38.9369 20.0414 38.2841C21.3733 37.6313 22.8377 37.2942 24.321 37.299C26.8385 37.2955 29.2577 38.2754 31.063 40.03V48.875H30.125V54.5C30.1237 55.4942 29.7282 56.4472 29.0252 57.1502C28.3222 57.8532 27.3692 58.2487 26.375 58.25C25.3808 58.2489 24.4276 57.8535 23.7245 57.1505C23.0215 56.4474 22.6261 55.4942 22.625 54.5C22.6091 54.0133 22.4046 53.5519 22.0547 53.2132C21.7048 52.8746 21.2369 52.6852 20.75 52.6852C20.2631 52.6852 19.7952 52.8746 19.4453 53.2132C19.0954 53.5519 18.8909 54.0133 18.875 54.5C18.875 58.635 22.238 62 26.375 62C30.51 62 33.875 58.635 33.875 54.5V48.875H32.937V40.029C34.7422 38.2744 37.1616 37.2948 39.679 37.299C41.1621 37.2941 42.6265 37.6311 43.9582 38.2839C45.29 38.9367 46.4534 39.8877 47.358 41.063C48.263 39.8878 49.4265 38.9369 50.7584 38.2841C52.0903 37.6313 53.5547 37.2942 55.038 37.299C56.3357 37.2954 57.6208 37.553 58.8168 38.0564C60.0129 38.5597 61.0954 39.2986 62 40.229C59.889 30.816 53.245 23.073 44.419 19.259ZM20.725 13.422C20.725 11.307 21.726 8.619 23.641 5.556C25.554 8.616 26.553 11.303 26.553 13.422C26.553 15.057 25.245 16.386 23.639 16.386C22.033 16.386 20.725 15.057 20.725 13.422ZM4 23.492C4 21.409 5.022 18.675 6.919 15.626C8.831 18.686 9.83 21.372 9.83 23.492C9.83 25.125 8.522 26.455 6.914 26.455C5.308 26.455 4 25.125 4 23.492ZM40.366 15.626C42.278 18.686 43.277 21.372 43.277 23.492C43.277 25.125 41.969 26.455 40.361 26.455C38.755 26.455 37.447 25.125 37.447 23.492C37.447 21.409 38.47 18.675 40.366 15.626Z" fill="black"/>
</svg>
