<svg width="55" height="55" viewBox="0 0 55 55" fill="none" xmlns="http://www.w3.org/2000/svg">
<path d="M38.9583 41.25C38.3506 41.25 37.7677 41.0086 37.3379 40.5788C36.9081 40.149 36.6667 39.5661 36.6667 38.9583C36.6667 38.3506 36.9081 37.7677 37.3379 37.3379C37.7677 36.9081 38.3506 36.6667 38.9583 36.6667C42.7488 36.6667 45.8333 33.5821 45.8333 29.7917C45.8333 26.0013 42.7488 22.9167 38.9583 22.9167C38.4129 22.9167 37.8217 23.0129 37.0952 23.2169L34.6408 23.9067L34.2146 21.3904C33.8634 19.2557 32.7649 17.3152 31.1151 15.9156C29.4653 14.5161 27.3718 13.7485 25.2083 13.75C23.8485 13.7521 22.5062 14.0563 21.2783 14.6406C20.0504 15.2249 18.9678 16.0748 18.1085 17.1288C17.2493 18.1827 16.635 19.4145 16.3101 20.7349C15.9851 22.0553 15.9576 23.4314 16.2296 24.7638L16.8254 27.6054L13.5346 27.4863C11.22 27.5 9.16668 29.5556 9.16668 32.0833C9.16668 34.611 11.22 36.6667 13.75 36.6667C14.3578 36.6667 14.9407 36.9081 15.3705 37.3379C15.8002 37.7677 16.0417 38.3506 16.0417 38.9583C16.0417 39.5661 15.8002 40.149 15.3705 40.5788C14.9407 41.0086 14.3578 41.25 13.75 41.25C8.69689 41.25 4.58334 37.1388 4.58334 32.0833C4.58584 30.0508 5.2626 28.0766 6.50758 26.47C7.75255 24.8634 9.49537 23.7152 11.4629 23.2054L11.4583 22.9167C11.4583 15.3336 17.6252 9.16668 25.2083 9.16668C28.0555 9.16176 30.8332 10.0457 33.1539 11.6951C35.4746 13.3445 37.2226 15.6772 38.154 18.3677C44.8571 17.8154 50.4167 23.2077 50.4167 29.7917C50.4167 36.1098 45.2765 41.25 38.9583 41.25ZM28.9644 32.0833L18.6519 41.3669L25.5269 44.6875L22.0894 52.7083L32.4019 43.4271L25.5269 40.1042L28.9644 32.0833Z" fill="black"/>
</svg>
