<svg width="43" height="61" viewBox="0 0 43 61" fill="none" xmlns="http://www.w3.org/2000/svg">
<path fill-rule="evenodd" clip-rule="evenodd" d="M26.8216 58.3275C26.8216 59.6695 22.7763 60.7637 21.3081 60.7637C19.836 60.7637 15.7946 59.6695 15.7946 58.3275L18.6393 29.383C18.6393 28.0372 19.836 26.9468 21.3081 26.9468C22.7801 26.9468 23.9769 28.0372 23.9769 29.383L26.8216 58.3275Z" fill="black"/>
<path fill-rule="evenodd" clip-rule="evenodd" d="M23.1359 13.3362C23.1359 14.4037 22.3329 15.2653 21.3465 15.2653C20.3523 15.2653 19.5532 14.4037 19.5532 13.3362V2.16553C19.5532 1.10184 20.3523 0.236404 21.3465 0.236404C22.3329 0.236404 23.1359 1.10184 23.1359 2.16553V13.3362Z" fill="black"/>
<path fill-rule="evenodd" clip-rule="evenodd" d="M3.52112 34.08C2.50788 34.7777 1.21935 34.6595 0.630528 33.8246C0.0569983 32.9896 0.397293 31.7391 1.4067 31.0453L12.0017 23.7253C13.0111 23.0314 14.3073 23.142 14.8885 23.9769C15.4696 24.8156 15.1255 26.0623 14.1123 26.76L3.52112 34.08Z" fill="black"/>
<path fill-rule="evenodd" clip-rule="evenodd" d="M41.2517 30.3056C41.7436 30.6068 42.0955 31.0903 42.2302 31.6499C42.365 32.2096 42.2716 32.7997 41.9705 33.2907C41.6474 33.7684 41.1474 34.0985 40.5802 34.2086C40.0131 34.3187 39.4253 34.1997 38.9461 33.8779L28.1026 26.9277C27.8585 26.7785 27.6463 26.5829 27.4781 26.3519C27.3099 26.121 27.189 25.8592 27.1222 25.5817C27.0555 25.3041 27.0442 25.0161 27.0891 24.7342C27.134 24.4523 27.2341 24.182 27.3838 23.9387C27.7074 23.4638 28.2063 23.136 28.7715 23.0267C29.3367 22.9174 29.9224 23.0355 30.4005 23.3554L41.2517 30.3056Z" fill="black"/>
<path fill-rule="evenodd" clip-rule="evenodd" d="M19.4117 19.0625H22.8759V22.6386H19.4117V19.0625Z" fill="black"/>
</svg>
